<svg xmlns="http://www.w3.org/2000/svg" width="80" height="75" viewBox="0 0 80 75" fill="none"><g id="on-light" clip-path="url(#clip0_1838_3501)"><path id="Vector" d="M40 0.833333C61.5933 0.833333 79.1667 18.4067 79.1667 40C79.1667 53.4533 72.18 66.0267 60.8333 73.1733V67.1867V66.6867L60.3933 66.4533L55.42 63.7733C63.42 58.5733 68.3333 49.5933 68.3333 40C68.3333 24.38 55.62 11.6667 40 11.6667C24.38 11.6667 11.6667 24.38 11.6667 40C11.6667 49.5933 16.58 58.5733 24.5867 63.78L19.6 66.5L19.1667 66.74V73.18C7.82 66.0267 0.833333 53.4533 0.833333 40C0.833333 18.4067 18.4067 0.833333 40 0.833333ZM40 0C17.9067 0 0 17.9067 0 40C0 54.8067 8.04 67.7333 19.9933 74.6467V67.2267L26.2467 63.82C18.0267 59.0667 12.5 50.18 12.5 40C12.5 24.8133 24.8133 12.5 40 12.5C55.1867 12.5 67.5 24.8133 67.5 40C67.5 50.18 61.9733 59.0667 53.7533 63.82L60 67.1867V74.6467C71.9533 67.7333 80 54.8067 80 40C80 17.9067 62.0933 0 40 0Z" fill="white"></path><g id="Group"><path id="Vector_2" d="M22.2334 19.02C22.5667 18.74 22.9067 18.46 23.2534 18.1934C22.9067 18.46 22.5667 18.7334 22.2334 19.02Z" fill="white"></path><path id="Vector_3" d="M21.2534 19.8934C21.5734 19.5934 21.9001 19.3067 22.2334 19.02C21.9001 19.3 21.5734 19.5934 21.2534 19.8934Z" fill="white"></path><path id="Vector_4" d="M54.5467 32.5466L52.7467 37.0266H56.3467L54.5467 32.5466Z" fill="white"></path><path id="Vector_5" d="M57.7734 19.02C58.1068 19.3 58.4334 19.5934 58.7534 19.8934C58.4334 19.5934 58.1068 19.3067 57.7734 19.02Z" fill="white"></path><path id="Vector_6" d="M56.7467 18.1934C57.0934 18.46 57.4334 18.7334 57.7667 19.02C57.4334 18.74 57.0934 18.46 56.7467 18.1934Z" fill="white"></path><path id="Vector_7" d="M41.6533 38.4867C42.38 37.8067 42.74 36.8667 42.74 35.6667C42.74 34.4667 42.3733 33.5267 41.6533 32.8467C40.9267 32.1667 39.96 31.8267 38.76 31.8267H36.26V39.5067H38.76C39.96 39.5067 40.92 39.1667 41.6533 38.4867Z" fill="white"></path><path id="Vector_8" d="M67.5 40C67.5 32.06 64.1334 24.9133 58.7534 19.8933V23.8267H54.5867V16.6933C50.6534 14.2267 46.06 12.7333 41.12 12.5333C41.44 12.5467 41.7667 12.5667 42.0867 12.5933V23.8267H37.92V12.5933C38.24 12.5667 38.56 12.5467 38.8867 12.5333C33.9534 12.7333 29.3534 14.2267 25.42 16.6933V23.8267H21.2534V19.8933C15.8734 24.9133 12.5067 32.06 12.5067 40C12.5067 50.18 18.0334 59.0667 26.2534 63.82L20.04 67.2066C25.6334 71.32 32.5334 73.7467 40.0067 73.7467C47.48 73.7467 54.4067 71.3067 60 67.18L53.76 63.8133C61.98 59.06 67.5067 50.1733 67.5067 39.9933L67.5 40ZM56.5267 28.6667L62.7267 42.6667H58.6067L57.5067 39.9467H51.5867L50.4867 42.6667H46.4467L52.6267 28.6667H56.5267ZM46.2467 13.22C47.68 13.5533 49.0734 14 50.4134 14.5467V23.82H46.2467V13.22ZM38.9267 28.6667C40.46 28.6667 41.82 28.9533 43.0067 29.5267C44.1934 30.1 45.1134 30.9133 45.7667 31.9667C46.42 33.02 46.7467 34.2533 46.7467 35.6667C46.7467 37.08 46.42 38.3133 45.7667 39.3667C45.1134 40.42 44.1934 41.2333 43.0067 41.8067C41.82 42.38 40.46 42.6667 38.9267 42.6667H32.3067V28.6667H38.9267ZM29.58 14.5467C30.92 14 32.3134 13.5533 33.7467 13.22V23.82H29.58V14.5467ZM23.4 42.6667H19.44V28.6667H30.42V31.7267H23.4V34.8067H29.58V37.8667H23.4V42.6667ZM30.8867 54.58C30.62 55.0133 30.22 55.3533 29.6734 55.6133C29.1334 55.8733 28.46 56 27.66 56C27.0734 56 26.4934 55.9267 25.92 55.7867C25.3467 55.6467 24.8534 55.44 24.44 55.18L25.28 53.4133C25.6134 53.6333 25.98 53.8067 26.38 53.9267C26.78 54.0467 27.18 54.1067 27.5867 54.1067C27.9934 54.1067 28.3134 54.0267 28.5534 53.8733C28.7934 53.72 28.9134 53.5067 28.9134 53.2267C28.9134 52.9467 28.7934 52.74 28.56 52.6C28.3267 52.46 27.9 52.3867 27.3 52.3867H25.0467L25.46 47.5267H30.7534V49.3467H27.4067L27.3 50.56H27.86C29.0267 50.56 29.8867 50.8 30.44 51.2733C31 51.7467 31.28 52.38 31.28 53.1733C31.28 53.6867 31.1467 54.16 30.88 54.5933L30.8867 54.58ZM34 66.0067L33.88 67.3133L32.92 66.4267L31.64 66.7133L32.1867 65.5267L31.52 64.4L32.82 64.5533L33.6867 63.5667L33.94 64.8533L35.14 65.3733L34 66.0133V66.0067ZM35.72 55.9933C35.0067 55.9933 34.3734 55.82 33.82 55.48C33.2667 55.14 32.8334 54.64 32.52 53.9867C32.2067 53.3333 32.0534 52.56 32.0534 51.6667C32.0534 50.7733 32.2067 50 32.52 49.3467C32.8334 48.6933 33.2667 48.2 33.82 47.8533C34.3734 47.5133 35.0067 47.34 35.72 47.34C36.4334 47.34 37.0534 47.5133 37.6067 47.8533C38.16 48.1933 38.5934 48.6933 38.9067 49.3467C39.22 50 39.3734 50.7733 39.3734 51.6667C39.3734 52.56 39.22 53.3333 38.9067 53.9867C38.5934 54.64 38.16 55.1333 37.6067 55.48C37.0534 55.82 36.4267 55.9933 35.72 55.9933ZM41.16 67.9667L40 67.36L38.84 67.9667L39.06 66.6733L38.12 65.76L39.4134 65.5733L39.9934 64.4L40.5734 65.5733L41.8667 65.76L40.9267 66.6733L41.1467 67.9667H41.16ZM41.2067 55.78C40.6334 55.64 40.1334 55.4333 39.7134 55.1733L40.5667 53.4067C40.8934 53.6267 41.26 53.8 41.6667 53.92C42.0734 54.04 42.4734 54.1 42.8734 54.1C43.2734 54.1 43.6 54.0267 43.8334 53.8733C44.0734 53.72 44.1867 53.5067 44.1867 53.2333C44.1867 52.6933 43.76 52.4267 42.9134 52.4267H41.9267V50.94L43.4134 49.34H40.1334V47.52H46.14V48.9933L44.42 50.8467C45.1067 50.9867 45.6334 51.2733 46.0067 51.6933C46.3734 52.12 46.56 52.6267 46.56 53.2333C46.56 53.7267 46.4267 54.18 46.16 54.6C45.8934 55.02 45.4934 55.36 44.9467 55.6133C44.4 55.8667 43.7334 56 42.9334 56C42.3467 56 41.7667 55.9267 41.1934 55.7867L41.2067 55.78ZM48.36 66.7133L47.08 66.4267L46.12 67.3133L46 66.0067L44.86 65.3667L46.06 64.8467L46.3134 63.56L47.18 64.5467L48.48 64.3933L47.8134 65.52L48.36 66.7066V66.7133ZM47.84 55.8267V47.5133H52.0934C53.1534 47.5133 53.96 47.7067 54.5134 48.1C55.0667 48.4933 55.3467 49.02 55.3467 49.6867C55.3467 50.08 55.2467 50.4333 55.0534 50.7467C54.86 51.06 54.5867 51.3067 54.2267 51.4867C54.7 51.6533 55.0734 51.9133 55.34 52.2667C55.6067 52.62 55.7467 53.0467 55.7467 53.5467C55.7467 54.2733 55.4534 54.84 54.8667 55.2333C54.28 55.6267 53.4334 55.8267 52.3267 55.8267H47.84Z" fill="white"></path><path id="Vector_9" d="M52.1401 52.4467H50.1667V54.1333H52.1401C52.9601 54.1333 53.3734 53.8533 53.3734 53.2933C53.3734 52.7333 52.9601 52.4533 52.1401 52.4533V52.4467Z" fill="white"></path><path id="Vector_10" d="M35.72 49.2733C35.3134 49.2733 35 49.4666 34.7667 49.8466C34.5334 50.2266 34.42 50.84 34.42 51.6666C34.42 52.4933 34.5334 53.1066 34.7667 53.4866C35 53.8733 35.32 54.06 35.72 54.06C36.12 54.06 36.4334 53.8666 36.6667 53.4866C36.9 53.1 37.02 52.4933 37.02 51.6666C37.02 50.84 36.9 50.2266 36.6667 49.8466C36.4334 49.4666 36.12 49.2733 35.72 49.2733Z" fill="white"></path><path id="Vector_11" d="M52.9667 50.0133C52.9667 49.48 52.5734 49.22 51.7801 49.22H50.1667V50.82H51.7801C52.5734 50.82 52.9667 50.5533 52.9667 50.0133Z" fill="white"></path></g><g id="Group_2"><path id="Vector_12" d="M12.5666 62.7733L14 61.64L12.3666 59.5733L12.8733 59.1733L14.5066 61.24L16.1733 59.92L16.64 60.5067L12.52 63.7667L10.22 60.86L10.7333 60.4533L12.5666 62.7733Z" fill="white"></path><path id="Vector_13" d="M8.76666 58.6201L7.76 56.6534C6.99333 55.1534 7.41333 53.6468 8.8 52.9334C10.1867 52.2201 11.66 52.7601 12.4267 54.2601L13.4333 56.2268L8.76 58.6201H8.76666ZM11.8733 54.5934C11.28 53.4401 10.1933 53.0601 9.14666 53.6001C8.1 54.1401 7.77333 55.2401 8.36 56.3934L9.00666 57.6534L12.52 55.8534L11.8733 54.5934Z" fill="white"></path><path id="Vector_14" d="M8.45335 47.2734L9.19335 49.9667L10.6133 50.1734L10.82 50.9201L5.12668 50.0134L4.93335 49.3001L9.36668 45.6134L9.57335 46.3734L8.46002 47.2801L8.45335 47.2734ZM7.94668 47.6867L5.76668 49.4601L8.54668 49.8734L7.94668 47.6867Z" fill="white"></path><path id="Vector_15" d="M9.01336 37.8734L7.38003 38.9734C7.38003 39.0801 7.39336 39.1934 7.38669 39.3067L7.36003 40.6067L8.96003 40.6334L8.94669 41.3867L3.69336 41.2867L3.73336 39.2401C3.76003 37.8734 4.46669 37.0601 5.60669 37.0867C6.42003 37.1001 6.99336 37.5334 7.24003 38.2734L9.02669 37.0601L9.01336 37.8801V37.8734ZM5.59336 37.8334C4.84003 37.8201 4.40669 38.3134 4.38669 39.2734L4.36003 40.5467L6.72003 40.5934L6.74669 39.3201C6.76669 38.3601 6.34003 37.8467 5.58669 37.8334H5.59336Z" fill="white"></path><path id="Vector_16" d="M9.44675 31.3868L10.0867 31.5201L9.30008 35.2468L4.16675 34.1601L4.93341 30.5334L5.57341 30.6668L4.96008 33.5601L6.54008 33.8934L7.08675 31.3201L7.71341 31.4534L7.16675 34.0268L8.82675 34.3801L9.46008 31.3868H9.44675Z" fill="white"></path><path id="Vector_17" d="M9.59332 25.4534L9.87332 24.7934L11.76 25.5934C11.96 26.2468 11.8866 27.0068 11.5933 27.6868C10.96 29.1734 9.45332 29.8201 8.02665 29.2134C6.59998 28.6068 6.01998 27.0734 6.65331 25.5734C6.97998 24.8068 7.51331 24.2668 8.18665 24.0334L8.43331 24.6468C7.87998 24.8801 7.51331 25.2668 7.27998 25.8134C6.80665 26.9334 7.23998 28.0734 8.31998 28.5268C9.37998 28.9801 10.52 28.5068 10.9933 27.4001C11.1666 26.9934 11.24 26.5734 11.1666 26.1334L9.59332 25.4668V25.4534Z" fill="white"></path><path id="Vector_18" d="M8.97339 21.2267L9.36672 20.5867L13.8267 23.3533L13.4334 23.9933L8.97339 21.2267Z" fill="white"></path><path id="Vector_19" d="M14.3734 21.3867L14.1001 20.8001C14.6201 20.7267 15.2468 20.3734 15.6734 19.8534C16.2534 19.1534 16.2334 18.6267 15.8801 18.3401C14.8934 17.5201 13.4868 20.4867 11.9801 19.2401C11.3534 18.7201 11.2268 17.7934 12.1134 16.7334C12.5068 16.2601 13.0401 15.8734 13.5468 15.7334L13.8534 16.3067C13.3334 16.4734 12.9001 16.7867 12.6068 17.1401C12.0334 17.8267 12.0801 18.3601 12.4334 18.6534C13.4201 19.4734 14.8334 16.5134 16.3201 17.7467C16.9401 18.2601 17.0534 19.2001 16.1668 20.2667C15.6534 20.8867 14.9401 21.3201 14.3734 21.3934V21.3867Z" fill="white"></path><path id="Vector_20" d="M16.6267 13.1334L15.26 14.3001L14.8334 13.8001L18.14 10.9801L18.5667 11.4801L17.1934 12.6468L20.18 16.1468L19.6134 16.6268L16.6267 13.1268V13.1334Z" fill="white"></path><path id="Vector_21" d="M25.7934 11.6267L26.1267 12.1867L22.8401 14.12L20.1801 9.58666L23.3801 7.70667L23.7134 8.26666L21.1667 9.76666L21.9867 11.16L24.2601 9.82666L24.5801 10.38L22.3067 11.7133L23.1667 13.1733L25.8067 11.62L25.7934 11.6267Z" fill="white"></path><path id="Vector_22" d="M31.0934 10.2534L29.4867 9.11336C29.3867 9.15336 29.2867 9.20003 29.1801 9.24003L27.9601 9.67336L28.4934 11.18L27.7867 11.4334L26.0267 6.4867L27.9534 5.80003C29.2401 5.34003 30.2467 5.71336 30.6334 6.7867C30.9067 7.55336 30.7067 8.24003 30.1001 8.74003L31.8667 9.9867L31.0934 10.26V10.2534ZM29.9201 7.03336C29.6667 6.3267 29.0534 6.09336 28.1467 6.41336L26.9467 6.84003L27.7401 9.0667L28.9401 8.64003C29.8467 8.32003 30.1734 7.74003 29.9201 7.03336Z" fill="white"></path><path id="Vector_23" d="M37.2933 8.38677L37.3933 9.03344L33.6267 9.60011L32.8467 4.41344L36.5067 3.86011L36.6067 4.50677L33.6867 4.94677L33.9267 6.54011L36.5267 6.14677L36.62 6.78011L34.02 7.17344L34.2733 8.84678L37.3 8.39344L37.2933 8.38677Z" fill="white"></path><path id="Vector_24" d="M39.4467 3.68005L41.6534 3.78672C43.3401 3.86672 44.4334 4.98672 44.3601 6.54005C44.2867 8.10005 43.0867 9.10672 41.4067 9.02672L39.2001 8.92005L39.4467 3.68005ZM41.3934 8.37339C42.6867 8.43339 43.5601 7.68005 43.6134 6.50672C43.6667 5.33339 42.8734 4.50005 41.5801 4.43339L40.1667 4.36672L39.9801 8.30672L41.3934 8.37339Z" fill="white"></path><path id="Vector_25" d="M52.3267 9.76678C52.0334 10.6268 51.1867 11.1068 49.92 10.6734C49.22 10.4334 48.6 9.97345 48.3 9.44678L48.8201 9.00011C49.0467 9.42678 49.5267 9.83345 50.1267 10.0401C50.8801 10.2934 51.4201 10.0934 51.6067 9.55345C51.8001 8.99345 51.5601 8.52678 50.4134 8.13345L49.2867 7.74678L50.4334 5.24011L53.2334 6.19345L53.0201 6.81345L50.8134 6.06011L50.2134 7.37345L50.7667 7.56011C52.2467 8.06678 52.6201 8.88011 52.3201 9.76011L52.3267 9.76678Z" fill="white"></path><path id="Vector_26" d="M54.3801 9.50675C55.2067 8.01342 56.4801 7.60009 57.5534 8.19342C58.6201 8.78675 58.9534 10.0801 58.1267 11.5734C57.3001 13.0668 56.0267 13.4801 54.9601 12.8868C53.8867 12.2934 53.5534 11.0001 54.3801 9.50009V9.50675ZM57.4667 11.2134C58.1134 10.0401 57.9401 9.17342 57.2267 8.78009C56.5067 8.38009 55.6801 8.69342 55.0334 9.87342C54.3867 11.0468 54.5601 11.9134 55.2801 12.3134C55.9934 12.7068 56.8201 12.3934 57.4667 11.2201V11.2134Z" fill="white"></path><path id="Vector_27" d="M61.78 15.7267C61.2267 16.42 60.2667 16.5734 59.2267 15.7334C58.64 15.2667 58.22 14.62 58.12 14.0334L58.76 13.7867C58.8267 14.2667 59.14 14.8134 59.64 15.2134C60.2533 15.7067 60.8333 15.7067 61.1867 15.26C61.5333 14.8267 61.4467 14.3 60.7467 13.7334L60.42 13.4734L60.7467 13.0667L62.7867 12.6267L60.8133 11.0467L61.22 10.54L63.92 12.7067L63.6 13.1067L61.4667 13.5734C62.2267 14.3067 62.2667 15.1 61.76 15.7334L61.78 15.7267Z" fill="white"></path><path id="Vector_28" d="M66.2001 20.7134C65.5201 21.3001 64.6801 21.1201 63.8134 20.1134L62.1801 18.2134L66.1601 14.7867L67.7001 16.5734C68.4867 17.4867 68.5401 18.3334 67.9001 18.8867C67.4667 19.2601 66.9734 19.2934 66.5534 19.1134C66.8134 19.6667 66.7334 20.2534 66.2067 20.7067L66.2001 20.7134ZM65.7534 20.1001C66.2134 19.7001 66.1267 19.1867 65.5801 18.5534L64.4534 17.2467L63.1267 18.3867L64.2534 19.6934C64.7934 20.3267 65.2867 20.4934 65.7467 20.1001H65.7534ZM66.1867 15.7534L64.9134 16.8467L65.9201 18.0134C66.4201 18.5934 66.9201 18.7401 67.3401 18.3734C67.7601 18.0134 67.6934 17.4934 67.1934 16.9134L66.1867 15.7467V15.7534Z" fill="white"></path><path id="Vector_29" d="M72.0067 24.3267L70.3467 25.0934L71.4467 27.4801L70.86 27.7534L69.76 25.3667L67.8334 26.2534L67.52 25.5734L72.28 23.3734L73.8334 26.7334L73.24 27.0067L72 24.3267H72.0067Z" fill="white"></path><path id="Vector_30" d="M71.6601 33.2134L70.9601 30.5134L69.5467 30.2867L69.3534 29.54L75.0334 30.5267L75.2201 31.2467L70.7334 34.8734L70.5334 34.1134L71.6601 33.2267V33.2134ZM72.1801 32.8134L74.3867 31.0734L71.6134 30.62L72.1801 32.8134Z" fill="white"></path><path id="Vector_31" d="M73.4533 35.5733C75.0066 35.48 76.2066 36.5933 76.3066 38.1867C76.3533 38.9933 76.12 39.7133 75.6133 40.2267L75.1133 39.7667C75.5133 39.3333 75.68 38.8267 75.6466 38.2533C75.5733 37.0733 74.6666 36.2467 73.5066 36.32C72.3466 36.3933 71.5466 37.32 71.62 38.5C71.6533 39.0733 71.8866 39.56 72.34 39.94L71.9 40.4533C71.3333 40.0067 71.0066 39.32 70.9533 38.5067C70.8533 36.92 71.9133 35.6667 73.4666 35.5733H73.4533Z" fill="white"></path><path id="Vector_32" d="M76.1934 42.7201L76.1334 43.4667L70.9 43.0334L70.96 42.2867L76.1934 42.7201Z" fill="white"></path><path id="Vector_33" d="M75.7534 46.4533L75.5934 47.1867L71.1067 46.2L70.4934 48.9733L69.8534 48.8333L70.6267 45.3267L75.7534 46.46V46.4533Z" fill="white"></path><path id="Vector_34" d="M74.2201 52.1468L73.9601 52.8534L69.0267 51.0468L69.2867 50.3401L74.2201 52.1468Z" fill="white"></path><path id="Vector_35" d="M71.7267 56.28L72.5667 54.6867L73.1467 54.9934L71.12 58.8334L70.54 58.5267L71.38 56.9334L67.3134 54.7867L67.66 54.1267L71.7267 56.2734V56.28Z" fill="white"></path><path id="Vector_36" d="M65.56 60.6733L64.1333 59.5467L64.5933 58.9667L66.0266 60.1L70.0066 60.5867L69.5066 61.22L66.2933 60.82L67.42 63.86L66.96 64.44L65.56 60.6733Z" fill="white"></path></g></g><defs><clipPath id="clip0_1838_3501"><rect width="80" height="74.6467" fill="white"></rect></clipPath></defs></svg>