<svg xmlns="http://www.w3.org/2000/svg" width="80" height="80" viewBox="0 0 80 80" fill="none"><g id="on-light" clip-path="url(#clip0_1838_3463)"><path id="Vector" d="M40 0C17.9067 0 0 17.9067 0 40C0 62.0933 17.9067 80 40 80C62.0933 80 80 62.0933 80 40C80 17.9067 62.0933 0 40 0ZM40 79.1667C18.4067 79.1667 0.833333 61.5933 0.833333 40C0.833333 18.4067 18.4067 0.833333 40 0.833333C61.5933 0.833333 79.1667 18.4067 79.1667 40C79.1667 61.5933 61.5933 79.1667 40 79.1667Z" fill="white"></path><g id="Group"><path id="Vector_2" d="M58.46 37.0933H56.8134V40.1667H58.46C59.0734 40.1667 59.5267 40.0333 59.84 39.7667C60.1534 39.5 60.3067 39.1267 60.3067 38.6333C60.3067 38.14 60.1534 37.76 59.84 37.4933C59.5267 37.2267 59.0734 37.0867 58.46 37.0867V37.0933Z" fill="white"></path><path id="Vector_3" d="M40 12.5C24.8133 12.5 12.5 24.8133 12.5 40C12.5 55.1867 24.8133 67.5 40 67.5C55.1867 67.5 67.5 55.1867 67.5 40C67.5 24.8133 55.1867 12.5 40 12.5ZM20.0133 41.5667C20.26 42.02 20.6 42.3733 21.0467 42.6267C21.4933 42.88 22 43 22.5667 43C23.5333 43 24.36 42.5933 25.04 41.7733L26.9267 43.4867C26.42 44.1267 25.78 44.6133 25.0067 44.9533C24.2333 45.2933 23.3733 45.4667 22.4133 45.4667C21.3133 45.4667 20.3267 45.2333 19.4533 44.7667C18.58 44.3 17.8933 43.6533 17.3933 42.8267C16.8933 42 16.64 41.0533 16.64 40.0067C16.64 38.96 16.8867 38.02 17.3933 37.1867C17.8933 36.3533 18.58 35.7067 19.4533 35.2467C20.3267 34.78 21.3133 34.5467 22.4133 34.5467C23.3733 34.5467 24.24 34.72 25.0067 35.06C25.7733 35.4 26.4133 35.8933 26.9267 36.5333L25.04 38.24C24.36 37.42 23.5333 37.0133 22.5667 37.0133C21.9933 37.0133 21.4867 37.14 21.0467 37.3867C20.6 37.64 20.2533 37.9867 20.0133 38.4467C19.7667 38.9 19.6467 39.4267 19.6467 40.0133C19.6467 40.6 19.7667 41.1267 20.0133 41.58V41.5667ZM30.7467 41.5533C30.9933 42.0067 31.3467 42.36 31.8 42.62C32.2533 42.8733 32.7667 43 33.3467 43C33.9267 43 34.4533 42.8867 34.9533 42.6533V39.7733H37.58V44.12C36.98 44.5467 36.2867 44.88 35.5067 45.1067C34.7267 45.3333 33.9467 45.4533 33.1667 45.4533C32.0667 45.4533 31.0733 45.22 30.2 44.7533C29.32 44.2867 28.6267 43.64 28.1267 42.8133C27.6267 41.9867 27.3733 41.04 27.3733 39.9933C27.3733 38.9467 27.62 38.0067 28.1267 37.1733C28.6267 36.34 29.32 35.6933 30.2133 35.2333C31.1 34.7667 32.1067 34.5333 33.2267 34.5333C34.2067 34.5333 35.0867 34.7 35.8667 35.0267C36.6467 35.36 37.3 35.8333 37.82 36.4533L35.9333 38.1667C35.22 37.3867 34.3733 36.9933 33.38 36.9933C32.48 36.9933 31.7533 37.2667 31.2067 37.8133C30.6533 38.36 30.38 39.0867 30.38 39.9933C30.38 40.5733 30.5067 41.0933 30.7533 41.5467L30.7467 41.5533ZM48.98 45.2533L48.9467 39.6867L46.2467 44.22H44.9267L42.24 39.84V45.2533H39.4933V34.7533H41.94L45.6333 40.8133L49.2333 34.7533H51.68L51.7067 45.2533H48.98ZM61.1133 42.0333C60.4133 42.3467 59.5867 42.5067 58.64 42.5067H56.8133V45.2533H53.8467V34.7533H58.6467C59.6 34.7533 60.42 34.9133 61.12 35.2267C61.82 35.54 62.36 35.9933 62.74 36.58C63.12 37.1667 63.3133 37.8533 63.3133 38.64C63.3133 39.4267 63.12 40.1133 62.74 40.6933C62.36 41.2733 61.82 41.72 61.12 42.0333H61.1133Z" fill="white"></path></g><path id="Vector_4" d="M41.02 72.64L40 70.58L38.98 72.64L36.7067 72.9733L38.3533 74.5733L37.9667 76.84L40 75.7733L42.0333 76.84L41.6467 74.5733L43.2933 72.9733L41.02 72.64Z" fill="white"></path><path id="Vector_5" d="M30.1667 69.7666C29.8534 69.4 29.4467 69.1333 28.9534 68.9533C28.5667 68.8133 28.1934 68.7466 27.82 68.76C27.4534 68.7733 27.1067 68.8666 26.7867 69.04L27.08 69.6533C27.6 69.4 28.1334 69.3666 28.6867 69.5733C29.0534 69.7066 29.3534 69.9133 29.5867 70.18C29.82 70.4466 29.9734 70.7666 30.0334 71.1133C30.0934 71.46 30.06 71.8133 29.9267 72.1733C29.7934 72.5266 29.5934 72.82 29.32 73.0466C29.0467 73.2733 28.7334 73.4133 28.38 73.4733C28.0267 73.5333 27.66 73.4933 27.3 73.3533C26.7467 73.1533 26.3534 72.7866 26.1267 72.26L25.5067 72.5333C25.64 72.8666 25.84 73.16 26.1134 73.4066C26.3867 73.6533 26.7134 73.8466 27.1 73.9866C27.5934 74.1666 28.08 74.22 28.56 74.1466C29.04 74.0733 29.46 73.8866 29.8267 73.5866C30.1934 73.2866 30.46 72.8933 30.64 72.42C30.8134 71.94 30.86 71.4666 30.7734 71.0066C30.6867 70.54 30.4867 70.1266 30.1734 69.76L30.1667 69.7666Z" fill="white"></path><path id="Vector_6" d="M24.2867 66.6933C23.6867 66.34 23.1133 66.2333 22.5733 66.3733C22.0333 66.5133 21.5733 66.9133 21.1933 67.5666L19.6733 70.14L20.3 70.5067L21.8 67.96C22.0867 67.4667 22.4133 67.1666 22.7733 67.06C23.1333 66.9533 23.52 67.02 23.9333 67.26C24.78 67.76 24.92 68.4933 24.3467 69.4666L22.8467 72.0133L23.4933 72.3933L25.0133 69.82C25.3933 69.1733 25.52 68.58 25.3867 68.04C25.2533 67.5 24.8867 67.0467 24.2867 66.6933Z" fill="white"></path><path id="Vector_7" d="M20.5533 64.2134L19.5067 65.42L18.5267 64.5667C18.4667 64.5134 18.38 64.4467 18.2667 64.36L18.4667 62.4L17.8467 61.8667L17.6333 64.0134C17.2667 63.8667 16.92 63.84 16.58 63.92C16.24 64.0067 15.94 64.2 15.6733 64.5067C15.3 64.9334 15.1533 65.4 15.2333 65.9C15.3133 66.4 15.6133 66.8734 16.1267 67.32L17.6733 68.66L21.1133 64.7L20.5467 64.2067L20.5533 64.2134ZM17.54 67.6867L16.58 66.8534C16.22 66.54 16.0133 66.2267 15.96 65.9134C15.9067 65.6 16 65.2934 16.2533 65.0067C16.5 64.72 16.7867 64.58 17.1133 64.5934C17.4333 64.6 17.78 64.7667 18.1333 65.0734L19.0933 65.9067L17.5467 67.6934L17.54 67.6867Z" fill="white"></path><path id="Vector_8" d="M16.6133 60.4267L15.3733 61.4333L14.56 60.4267C14.5066 60.3667 14.4333 60.28 14.34 60.18L14.88 58.2867L14.3666 57.6533L13.78 59.7266C13.4466 59.52 13.1066 59.4267 12.76 59.4533C12.4133 59.48 12.08 59.6133 11.7666 59.8733C11.3266 60.2333 11.1 60.6667 11.0933 61.1733C11.0866 61.68 11.2933 62.2 11.7266 62.7266L13.0133 64.32L17.0933 61.02L16.62 60.4333L16.6133 60.4267ZM13.04 63.32L12.24 62.3266C11.94 61.96 11.7933 61.6133 11.7933 61.2867C11.7933 60.96 11.94 60.6867 12.24 60.4467C12.5333 60.2067 12.84 60.12 13.16 60.1867C13.4733 60.2533 13.7866 60.4667 14.08 60.84L14.88 61.8333L13.04 63.32Z" fill="white"></path><path id="Vector_9" d="M11.8867 53.3199L11.32 53.6399L12.8133 56.3066L11.3333 57.1399L10.0467 54.8399L9.49332 55.1533L10.78 57.4466L9.37332 58.2399L7.92665 55.6599L7.35999 55.9799L9.16665 59.2133L13.7467 56.6466L11.8867 53.3199Z" fill="white"></path><path id="Vector_10" d="M11.16 51.58L7.46001 52.86L10.1333 48.6067L9.93334 48.02L4.96667 49.74L5.21334 50.4467L8.91334 49.1667L6.24667 53.4267L6.44668 54.0067L11.4067 52.2867L11.16 51.58Z" fill="white"></path><path id="Vector_11" d="M4.90001 46.1467L9.43335 45.4067L9.31335 44.6734L4.78001 45.4134L4.48668 43.64L3.84668 43.74L4.54668 48.0267L5.18668 47.92L4.90001 46.1467Z" fill="white"></path><path id="Vector_12" d="M4.89999 39.7C5.29332 39.9734 5.73999 40.1267 6.25332 40.16C6.75999 40.1934 7.22665 40.1067 7.65332 39.8934C8.07999 39.68 8.41999 39.3667 8.67999 38.96C8.93999 38.5534 9.09332 38.0867 9.12665 37.5534C9.15332 37.18 9.12665 36.8134 9.02665 36.4667C8.92665 36.12 8.79332 35.8 8.59332 35.5267L6.55332 35.3867L6.49999 36.1067L8.20665 36.2267C8.40665 36.5934 8.49332 37.0067 8.45999 37.48C8.43332 37.8734 8.31999 38.22 8.12665 38.5267C7.92665 38.8334 7.67332 39.06 7.35332 39.22C7.03332 39.38 6.68665 39.4467 6.30665 39.42C5.91999 39.3934 5.58665 39.28 5.28665 39.08C4.98665 38.88 4.77332 38.6134 4.61999 38.2867C4.46665 37.96 4.40665 37.5934 4.43999 37.1934C4.47999 36.6 4.71999 36.1067 5.15332 35.72L4.71999 35.2267C4.43999 35.4467 4.21999 35.7267 4.05999 36.06C3.89999 36.3934 3.80665 36.7667 3.77332 37.1867C3.73332 37.72 3.81999 38.2067 4.01999 38.6534C4.21999 39.0934 4.51332 39.4534 4.90665 39.72L4.89999 39.7Z" fill="white"></path><path id="Vector_13" d="M5.55331 33.1733C5.88665 33.5133 6.29331 33.7533 6.78665 33.88C7.27331 34.0133 7.74665 34.0133 8.20665 33.8867C8.66665 33.76 9.05998 33.52 9.39998 33.1733C9.73331 32.8267 9.97331 32.3933 10.1133 31.88C10.2533 31.3733 10.26 30.8867 10.1466 30.4133C10.0333 29.94 9.81331 29.54 9.47998 29.2C9.14665 28.86 8.73998 28.6267 8.24665 28.4933C7.75331 28.36 7.27998 28.3533 6.82665 28.48C6.37331 28.6067 5.97331 28.84 5.63998 29.1933C5.30665 29.54 5.06665 29.9733 4.93331 30.48C4.79331 30.9933 4.77998 31.4867 4.89331 31.9533C5.00665 32.4267 5.22665 32.8333 5.55998 33.1733H5.55331ZM5.56665 30.6533C5.66665 30.28 5.83998 29.9667 6.09331 29.72C6.33998 29.4667 6.63998 29.3 6.97998 29.2067C7.32665 29.1133 7.67998 29.12 8.04665 29.22C8.41331 29.32 8.71998 29.4933 8.97331 29.7467C9.22665 30 9.39331 30.2933 9.47998 30.64C9.56665 30.98 9.55998 31.34 9.45998 31.7133C9.35998 32.0867 9.18665 32.4 8.93331 32.6533C8.67998 32.9067 8.38665 33.08 8.03998 33.1733C7.69331 33.2667 7.33998 33.26 6.97331 33.16C6.60665 33.06 6.29998 32.8867 6.04665 32.6333C5.79331 32.38 5.62665 32.08 5.53998 31.7333C5.45331 31.3867 5.45998 31.0267 5.55998 30.6533H5.56665Z" fill="white"></path><path id="Vector_14" d="M8.72004 27.2533C9.17337 27.48 9.63337 27.58 10.1067 27.5533C10.58 27.5267 11.02 27.3733 11.42 27.1C11.82 26.8267 12.14 26.4533 12.38 25.98C12.62 25.5133 12.7267 25.0333 12.7134 24.5533C12.7 24.0733 12.5667 23.6267 12.3067 23.2267C12.0534 22.8267 11.7 22.5133 11.24 22.28C10.7867 22.0467 10.32 21.9467 9.85337 21.98C9.38671 22.0133 8.94671 22.16 8.54671 22.4333C8.14671 22.7067 7.82671 23.08 7.59337 23.5467C7.35337 24.02 7.24004 24.5 7.25337 24.98C7.26671 25.46 7.40004 25.9067 7.66004 26.3067C7.91337 26.7067 8.26671 27.0267 8.72004 27.2533ZM8.18671 23.8467C8.36004 23.5 8.59337 23.2333 8.89337 23.04C9.18671 22.8467 9.51337 22.74 9.86671 22.72C10.22 22.7 10.5667 22.78 10.9067 22.9467C11.2467 23.12 11.5134 23.3533 11.7067 23.6533C11.9 23.9533 12.0067 24.28 12.02 24.6267C12.04 24.98 11.96 25.3267 11.7867 25.6733C11.6134 26.02 11.3734 26.2867 11.08 26.4867C10.78 26.6867 10.4534 26.7933 10.1 26.8133C9.74671 26.8333 9.40004 26.7533 9.06004 26.58C8.72004 26.4067 8.45337 26.1733 8.26004 25.8733C8.06671 25.5733 7.96004 25.2467 7.94671 24.8933C7.93337 24.5333 8.01337 24.1867 8.18671 23.84V23.8467Z" fill="white"></path><path id="Vector_15" d="M15.6267 20.7934C15.9733 20.36 16.1933 19.9067 16.2867 19.4334C16.38 18.96 16.3467 18.5067 16.1867 18.0734C16.02 17.64 15.74 17.2667 15.3333 16.94C14.9333 16.62 14.5 16.4267 14.04 16.3667C13.58 16.3067 13.1333 16.3734 12.6933 16.5734C12.2533 16.7734 11.86 17.0934 11.5133 17.5267L10.14 19.26L14.2533 22.5267L15.6267 20.7934ZM11.12 19.0734L12 17.96C12.2667 17.6267 12.56 17.3867 12.8933 17.2334C13.22 17.0867 13.56 17.0334 13.9 17.08C14.24 17.1267 14.5667 17.2734 14.8733 17.5134C15.18 17.7534 15.3933 18.04 15.52 18.36C15.6467 18.68 15.6733 19.02 15.6 19.3734C15.5267 19.7267 15.36 20.0734 15.0933 20.4067L14.2133 21.52L11.1267 19.0667L11.12 19.0734Z" fill="white"></path><path id="Vector_16" d="M20.3466 15.8934L18.14 12.8L21.5266 14.28L21.8066 14.08L21.5066 10.38L23.7266 13.4934L24.3133 13.0734L21.2666 8.80005L20.7666 9.16005L21.14 13.4134L17.22 11.68L16.72 12.0334L19.76 16.3134L20.3466 15.8934Z" fill="white"></path><path id="Vector_17" d="M25.72 10.94L28.2733 9.82004L29.3333 10.7867L30.0533 10.4734L25.76 6.62671L25.08 6.92671L25.0133 12.6934L25.72 12.38V10.9467V10.94ZM25.72 7.47338L27.7933 9.37338L25.72 10.2867V7.47338Z" fill="white"></path><path id="Vector_18" d="M31.5934 10.0867L30.72 6.26671L34.6667 9.38004L35.26 9.24671L34.0934 4.12671L33.3667 4.29338L34.2334 8.11338L30.2934 4.99338L29.6934 5.13338L30.86 10.2534L31.5934 10.0867Z" fill="white"></path><path id="Vector_19" d="M37.32 8.49996C37.72 8.88663 38.2733 9.06663 38.9733 9.04663C39.6733 9.02663 40.2133 8.80663 40.5866 8.39996C40.96 7.99329 41.14 7.40663 41.1133 6.65329L41.0133 3.66663L40.2866 3.69329L40.38 6.64663C40.4 7.21329 40.2866 7.64663 40.04 7.92663C39.7933 8.21329 39.4333 8.35996 38.9533 8.37996C37.9666 8.41329 37.46 7.86663 37.42 6.73996L37.3266 3.78663L36.58 3.81329L36.68 6.79996C36.7066 7.54663 36.92 8.11996 37.32 8.50663V8.49996Z" fill="white"></path><path id="Vector_20" d="M43.7733 7.04668L46.38 7.41335L46.4667 6.77335L43.86 6.41335L44.1133 4.60001L47.04 5.00668L47.1333 4.36001L43.46 3.84668L42.74 9.04668L43.48 9.15335L43.7733 7.04668Z" fill="white"></path><path id="Vector_21" d="M47.1733 9.74005L48.1066 8.65339L50.7733 9.46672L50.94 10.8934L51.6933 11.1201L50.9466 5.40005L50.2333 5.18005L46.4266 9.50672L47.1666 9.73339L47.1733 9.74005ZM50.3666 6.02672L50.7 8.82005L48.5333 8.16005L50.3666 6.02672Z" fill="white"></path><path id="Vector_22" d="M54.3533 12.5467C54.72 12.7333 55.0867 12.84 55.4533 12.8667C55.82 12.9 56.1733 12.8467 56.5133 12.7133L56.2933 12.0733C55.7467 12.2667 55.2133 12.2333 54.6933 11.9667C54.3467 11.7933 54.0733 11.5533 53.8667 11.2533C53.6667 10.9533 53.5533 10.6267 53.5333 10.2733C53.5133 9.92001 53.5867 9.57334 53.76 9.23334C53.9333 8.89334 54.1667 8.62667 54.4667 8.43334C54.7667 8.24001 55.0933 8.13334 55.4533 8.12001C55.8133 8.10667 56.1667 8.18667 56.5133 8.36001C57.04 8.62667 57.3867 9.03334 57.5533 9.58001L58.2 9.38001C58.1067 9.03334 57.94 8.72001 57.7 8.44001C57.46 8.16667 57.1533 7.93334 56.7867 7.74667C56.32 7.50667 55.84 7.40001 55.36 7.41334C54.8733 7.42667 54.4333 7.56667 54.0333 7.82001C53.6333 8.07334 53.32 8.43334 53.0933 8.88667C52.8667 9.34001 52.76 9.80667 52.7933 10.28C52.8267 10.7533 52.9733 11.1867 53.2467 11.5867C53.52 11.9867 53.8867 12.3 54.36 12.54L54.3533 12.5467Z" fill="white"></path><path id="Vector_23" d="M58.12 14.8L58.7133 15.2466L61.4467 11.5466L62.8933 12.6133L63.28 12.0933L59.7867 9.51331L59.4 10.0333L60.8467 11.1066L58.12 14.8Z" fill="white"></path><path id="Vector_24" d="M61.6 16.9199C61.58 17.4799 61.82 18.0066 62.3 18.5133C62.7867 19.0199 63.3067 19.2733 63.8667 19.2799C64.4267 19.2799 64.9734 19.0266 65.52 18.4999L67.6667 16.4266L67.16 15.8999L65.0334 17.9533C64.62 18.3466 64.2267 18.5533 63.8534 18.5599C63.48 18.5666 63.12 18.3999 62.7867 18.0533C62.1067 17.3466 62.1667 16.5999 62.98 15.8199L65.1067 13.7733L64.5867 13.2333L62.44 15.3066C61.9 15.8266 61.62 16.3666 61.6067 16.9266L61.6 16.9199Z" fill="white"></path><path id="Vector_25" d="M65.2334 21.8934L66.5667 21.0134L67.28 22.0934C67.3267 22.16 67.3867 22.2467 67.4734 22.36L66.7534 24.1934L67.2067 24.8734L67.9867 22.86C68.3 23.1 68.6267 23.22 68.98 23.2267C69.3267 23.2334 69.6734 23.1267 70.0067 22.9067C70.48 22.5934 70.7467 22.18 70.8 21.68C70.8534 21.1734 70.6934 20.64 70.32 20.0734L69.1867 18.3667L64.8134 21.2667L65.2267 21.8934H65.2334ZM69.06 19.3534L69.7667 20.4134C70.0267 20.8067 70.1467 21.1667 70.1134 21.4867C70.08 21.8067 69.9067 22.0734 69.5934 22.28C69.28 22.4867 68.9667 22.5467 68.6534 22.4534C68.3467 22.36 68.06 22.1134 67.7934 21.7134L67.0867 20.6534L69.0534 19.3467L69.06 19.3534Z" fill="white"></path><path id="Vector_26" d="M72.419 23.6794L67.7042 25.9963L68.0335 26.6665L72.7483 24.3496L72.419 23.6794Z" fill="white"></path><path id="Vector_27" d="M68.9933 28.82L72.7133 27.5933L69.9867 31.8133L70.18 32.3933L75.16 30.7466L74.9267 30.0333L71.2133 31.26L73.94 27.0466L73.7467 26.46L68.76 28.1066L68.9933 28.82Z" fill="white"></path><path id="Vector_28" d="M74.4867 33.42C74.0467 33.2333 73.5801 33.1667 73.0734 33.2333C72.5667 33.3 72.1267 33.4733 71.7534 33.7667C71.3801 34.06 71.1067 34.4267 70.9267 34.88C70.7467 35.3333 70.6934 35.82 70.7601 36.3467C70.8067 36.72 70.9067 37.0667 71.0667 37.3933C71.2267 37.72 71.4267 38 71.6734 38.2333L73.7067 37.9733L73.6134 37.26L71.9201 37.4733C71.6534 37.1533 71.4867 36.76 71.4334 36.2933C71.3867 35.9 71.4267 35.5333 71.5601 35.2C71.6934 34.8667 71.9001 34.5867 72.1867 34.3667C72.4734 34.1467 72.8001 34.02 73.1734 33.9667C73.5534 33.92 73.9134 33.9667 74.2401 34.1067C74.5667 34.2467 74.8401 34.46 75.0467 34.76C75.2601 35.0533 75.3867 35.4 75.4401 35.7933C75.5134 36.3867 75.3801 36.9133 75.0267 37.38L75.5467 37.78C75.7801 37.5067 75.9401 37.1933 76.0334 36.84C76.1267 36.4867 76.1467 36.0933 76.0934 35.68C76.0267 35.1467 75.8534 34.6867 75.5734 34.2933C75.2934 33.9 74.9334 33.6067 74.4934 33.42H74.4867Z" fill="white"></path><path id="Vector_29" d="M71.0333 41.88L70.9399 42.6267L72.5199 42.82L72.3666 44.1067C72.2866 44.78 72.3799 45.3333 72.6599 45.76C72.9333 46.1867 73.3533 46.4333 73.9199 46.5C74.4866 46.5667 74.9533 46.4267 75.3266 46.08C75.6933 45.7333 75.9199 45.22 76.0066 44.5467L76.2533 42.5133L71.0399 41.88H71.0333ZM75.3533 44.44C75.2933 44.9133 75.1533 45.26 74.9199 45.48C74.6866 45.7 74.3866 45.7933 74.0066 45.7467C73.6266 45.7 73.3533 45.54 73.1866 45.2667C73.0199 44.9933 72.9599 44.62 73.0133 44.1533L73.1666 42.8867L75.5066 43.1733L75.3533 44.44Z" fill="white"></path><path id="Vector_30" d="M70.0467 47.8867L71.5733 48.3534L71.1933 49.5934C71.1733 49.6667 71.14 49.7734 71.1133 49.9134L69.24 50.5267L69 51.3067L71.0467 50.6267C71.0667 51.02 71.18 51.3534 71.3933 51.6267C71.6067 51.9 71.9067 52.0934 72.2933 52.2134C72.84 52.38 73.32 52.32 73.7467 52.04C74.1733 51.76 74.48 51.2934 74.68 50.6467L75.2733 48.6867L70.2467 47.16L70.0267 47.88L70.0467 47.8867ZM71.8133 49.7534L72.1867 48.5334L74.4467 49.22L74.0733 50.44C73.9333 50.8934 73.7333 51.2134 73.4667 51.3934C73.2 51.5734 72.8867 51.6067 72.52 51.5C72.1533 51.3867 71.9133 51.1867 71.7867 50.8867C71.66 50.5867 71.6733 50.2134 71.8067 49.7534H71.8133Z" fill="white"></path><path id="Vector_31" d="M68.4467 52.58L69.34 53.7L68.0467 56.1734L66.6134 56.08L66.2467 56.78L72.0067 57.0934L72.3534 56.4334L68.8 51.9L68.44 52.5867L68.4467 52.58ZM71.5067 56.4067L68.7 56.22L69.7467 54.2134L71.5067 56.4067Z" fill="white"></path><path id="Vector_32" d="M68.18 58.5533C67.7733 58.2466 67.34 58.0599 66.8666 58.0066C66.4 57.9466 65.94 58.0199 65.5 58.2133C65.06 58.4066 64.68 58.7133 64.36 59.1333C64.1133 59.4599 63.94 59.7999 63.84 60.1599C63.74 60.5133 63.7266 60.8733 63.8 61.2266L64.4733 61.1266C64.38 60.5533 64.5133 60.0333 64.8733 59.5733C65.1133 59.2599 65.3933 59.0333 65.7266 58.8933C66.06 58.7533 66.4 58.6999 66.7533 58.7466C67.1066 58.7933 67.4333 58.9333 67.7333 59.1599C68.0333 59.3933 68.2533 59.6733 68.3933 59.9999C68.5333 60.3266 68.5733 60.6666 68.52 61.0266C68.4666 61.3799 68.32 61.7199 68.0866 62.0266C67.7266 62.4933 67.2666 62.7599 66.6933 62.8199L66.7733 63.4933C67.1333 63.4666 67.4733 63.3599 67.7866 63.1733C68.1 62.9866 68.3866 62.7333 68.6333 62.4066C68.9533 61.9933 69.1466 61.5399 69.22 61.0599C69.2933 60.5799 69.24 60.1199 69.06 59.6866C68.88 59.2466 68.5933 58.8733 68.1866 58.5666L68.18 58.5533Z" fill="white"></path><path id="Vector_33" d="M64.6 65.7734L61.46 62.42L60.92 62.9267L64.06 66.28L62.74 67.5134L63.1867 67.9867L66.36 65.02L65.9134 64.5467L64.6 65.7734Z" fill="white"></path><path id="Vector_34" d="M58.8023 64.6781L58.2034 65.124L61.3407 69.3377L61.9396 68.8917L58.8023 64.6781Z" fill="white"></path><path id="Vector_35" d="M57.5266 67.1867C57.1199 66.9467 56.6733 66.8333 56.1866 66.84C55.6999 66.8467 55.2333 66.9733 54.7799 67.2333C54.4199 67.4333 54.1266 67.68 53.8999 67.9667C53.6733 68.2533 53.5199 68.58 53.4399 68.9333L54.0999 69.1067C54.2399 68.5467 54.5666 68.12 55.0799 67.8333C55.4199 67.64 55.7733 67.5467 56.1333 67.5467C56.4933 67.5467 56.8266 67.6333 57.1333 67.8133C57.4399 67.9933 57.6866 68.2533 57.8733 68.58C58.0599 68.9133 58.1533 69.2533 58.1466 69.6067C58.1399 69.96 58.0466 70.2933 57.8599 70.6C57.6733 70.9067 57.4066 71.1533 57.0666 71.3467C56.5533 71.6333 56.0199 71.6933 55.4733 71.5267L55.2799 72.18C55.6199 72.3 55.9733 72.3333 56.3399 72.2867C56.7066 72.24 57.0666 72.1133 57.4199 71.9133C57.8799 71.6533 58.2333 71.32 58.4933 70.9133C58.7533 70.5 58.8799 70.06 58.8933 69.5867C58.8999 69.1133 58.7799 68.6533 58.5333 68.2133C58.2866 67.7667 57.9533 67.4267 57.5466 67.1867H57.5266Z" fill="white"></path><path id="Vector_36" d="M48.48 69.9334L48.7 70.5467L51.5866 69.5134L52.1533 71.1134L49.6733 72.0001L49.8933 72.6001L52.3666 71.7134L52.9133 73.2334L50.1266 74.2267L50.3466 74.8401L53.84 73.5934L52.0733 68.6467L48.48 69.9334Z" fill="white"></path></g><defs><clipPath id="clip0_1838_3463"><rect width="80" height="80" fill="white"></rect></clipPath></defs></svg>