<svg xmlns="http://www.w3.org/2000/svg" width="80" height="80" viewBox="0 0 80 80" fill="none"><g id="on-light" clip-path="url(#clip0_1838_3441)"><path id="Vector" d="M40 0C17.9067 0 0 17.9067 0 40C0 62.0933 17.9067 80 40 80C62.0933 80 80 62.0933 80 40C80 17.9067 62.0933 0 40 0ZM40 79.1667C18.4067 79.1667 0.833333 61.5933 0.833333 40C0.833333 18.4067 18.4067 0.833333 40 0.833333C61.5933 0.833333 79.1667 18.4067 79.1667 40C79.1667 61.5933 61.5933 79.1667 40 79.1667ZM40 12.5C24.8133 12.5 12.5 24.8133 12.5 40C12.5 55.1867 24.8133 67.5 40 67.5C55.1867 67.5 67.5 55.1867 67.5 40C67.5 24.8133 55.1867 12.5 40 12.5ZM43.16 62.66C42.36 63.3533 41.26 63.7 39.88 63.7H36.3267V49.58H39.0733C40.7 49.58 41.92 49.8867 42.7467 50.4933C43.5733 51.1 43.98 52.0067 43.98 53.2133C43.98 53.9533 43.8133 54.5933 43.48 55.1267C43.1467 55.6733 42.66 56.0933 42.02 56.4C42.7933 56.72 43.3733 57.1733 43.7733 57.76C44.1667 58.3467 44.3667 59.0467 44.3667 59.86C44.3667 61.0267 43.9667 61.96 43.16 62.6533V62.66ZM44.5133 49.68L42.0867 43.4C41.7 43.4667 41.3 43.5067 40.8867 43.5067C40.0533 43.5067 39.26 43.3533 38.52 43.08L35.9867 49.68H34.5133L37.3067 42.5C35.3267 41.2933 34 39.12 34 36.6333C34 33.8067 35.74 31.36 38.22 30.3133V16.3H40.2333C40.8267 16.3 41.3933 16.3533 41.9333 16.4667C44.0267 16.8933 45.6467 18.2267 45.6467 21.0267C45.62 23.9733 43.9733 25.4733 41.9333 25.8667C41.5667 25.9533 41.1667 25.98 40.7733 25.98H39.6933V29.8867C40.08 29.82 40.48 29.78 40.8867 29.78C42.7 29.78 44.34 30.4867 45.56 31.62L44.5933 32.7267C43.6267 31.7867 42.3267 31.2267 40.8867 31.2267C37.9133 31.2267 35.48 33.66 35.48 36.6333C35.48 38.4867 36.4267 40.1267 37.86 41.1067L40.24 34.9933L42.8533 41.6667C43.4933 41.4133 44.08 41.04 44.5733 40.5733L45.5933 41.6467C44.9533 42.2467 44.2067 42.7133 43.3933 43.04L45.9933 49.6867H44.52L44.5133 49.68ZM39.0533 41.7067C39.6267 41.92 40.2467 42.04 40.8933 42.04C41.1133 42.04 41.3333 42.02 41.5467 41.9933L40.24 38.6133L39.0533 41.7067ZM41.8533 55.2533C42.4067 54.7933 42.6867 54.14 42.6867 53.2933C42.6867 52.4467 42.4133 51.8133 41.86 51.38C41.3067 50.94 40.5067 50.72 39.4533 50.72H37.5933V55.9533H39.4933C40.5133 55.9533 41.3 55.72 41.8533 55.26V55.2533ZM39.92 57.0867H37.5933V62.52H39.62C40.7667 62.52 41.62 62.3067 42.18 61.8667C42.7467 61.4267 43.0267 60.7667 43.0267 59.88C43.0267 58.9933 42.7533 58.3133 42.2067 57.82C41.66 57.3267 40.8933 57.08 39.92 57.08V57.0867ZM41.94 24.54C43.2467 24.1733 44.2333 23.12 44.2067 21.0533C44.18 19.1 43.1867 18.1667 41.94 17.8267C41.4867 17.68 40.9733 17.66 40.4667 17.66H39.7V24.7133H40.72C41.14 24.7133 41.54 24.6533 41.9333 24.5467L41.94 24.54ZM51.1133 5.44667L49.9533 5.09333L48.4333 10.12L49.5933 10.4733L51.1133 5.44667ZM45.8533 9.15333C46.32 9 46.6933 8.74667 46.9933 8.38667C47.2867 8.02667 47.4733 7.59333 47.5467 7.07333C47.62 6.55333 47.5667 6.08 47.38 5.65333C47.1933 5.22667 46.9 4.88 46.5 4.6C46.1 4.32 45.6133 4.14667 45.0467 4.06667L42.6867 3.73333L41.9533 8.93333L44.3133 9.26667C44.88 9.34667 45.3933 9.30667 45.8533 9.15333ZM43.7467 4.89333L44.8467 5.04667C45.3667 5.12 45.76 5.32667 46.0267 5.66C46.2933 5.99333 46.3933 6.40667 46.3267 6.9C46.26 7.39333 46.0467 7.76667 45.6933 8.01333C45.34 8.26 44.9067 8.34667 44.3867 8.27333L43.2867 8.12L43.74 4.9L43.7467 4.89333ZM40.58 8.9L40.5333 7.92667L37.68 8.07333L37.62 6.86L40.0533 6.74L40.0067 5.79333L37.5733 5.92L37.5133 4.78L40.2667 4.64L40.22 3.66667L36.26 3.86667L36.5267 9.10667L40.5867 8.9H40.58ZM53.2933 11.94L55.04 8.05333L56.5733 8.74667L56.98 7.84667L52.8067 5.96667L52.4 6.86667L53.9333 7.55333L52.1867 11.44L53.2933 11.94ZM59.0667 15.4133L59.6067 14.6067L57.2333 13.0133L57.9067 12.0067L59.9333 13.3667L60.46 12.58L58.4333 11.2267L59.0667 10.28L61.36 11.8133L61.9 11.0067L58.6067 8.8L55.6867 13.16L59.0667 15.42V15.4133ZM68.4867 25.7867L69.5067 24.9667L70.76 25.34L70.2933 24.1133L71.04 23.0333L69.7333 23.1L68.94 22.06L68.6 23.3267L67.3667 23.76L68.46 24.4733L68.4933 25.78L68.4867 25.7867ZM61.82 17.9267C62.2267 18.3267 62.66 18.6067 63.12 18.76C63.58 18.9133 64.04 18.9333 64.4933 18.8267C64.9467 18.72 65.3533 18.48 65.7267 18.1067C66.1 17.7333 66.3333 17.32 66.44 16.8733C66.5467 16.4267 66.52 15.9667 66.3667 15.5C66.2133 15.04 65.9267 14.6067 65.5267 14.2L63.8333 12.52L60.1333 16.2467L61.8267 17.9267H61.82ZM63.9933 14.0867L64.78 14.8667C65.1533 15.24 65.3467 15.6333 65.36 16.0667C65.3733 16.5 65.2067 16.8867 64.8533 17.24C64.5 17.5933 64.1133 17.7667 63.68 17.7533C63.2533 17.74 62.8533 17.5467 62.48 17.18L61.6933 16.4L63.9867 14.0933L63.9933 14.0867ZM31.9467 10.0133L31.6067 8.58667L32.6333 8.34667L32.6933 8.33333L34.0133 9.52667L35.2867 9.22667L33.7533 7.85333C34.0533 7.62667 34.2667 7.35333 34.38 7.04C34.5 6.72 34.5133 6.37333 34.42 5.99333C34.3267 5.61333 34.16 5.30667 33.9133 5.07333C33.6667 4.84 33.36 4.68667 32.9933 4.61333C32.6267 4.54 32.2133 4.56 31.76 4.66667L29.5467 5.18667L30.7533 10.2933L31.9333 10.0133H31.9467ZM31.9267 5.64C32.28 5.55333 32.5667 5.56667 32.7933 5.68C33.02 5.79333 33.16 5.98667 33.2267 6.27333C33.2933 6.55333 33.2533 6.79333 33.1067 6.99333C32.96 7.19333 32.7067 7.33333 32.3533 7.42L31.3933 7.64667L30.9733 5.86667L31.94 5.64H31.9267ZM19.94 14.66C20.38 14.86 20.84 14.9267 21.3267 14.8733C21.8133 14.82 22.28 14.64 22.72 14.3333C23.0933 14.0733 23.3867 13.7733 23.6 13.4333C23.8133 13.0933 23.9333 12.72 23.9667 12.3333L22.9133 12.1867C22.86 12.7267 22.6133 13.1533 22.1867 13.4533C21.92 13.64 21.64 13.7467 21.3467 13.7733C21.0533 13.8 20.78 13.7533 20.52 13.62C20.26 13.4933 20.0333 13.2933 19.8467 13.0267C19.66 12.76 19.5533 12.48 19.5267 12.1933C19.5 11.9 19.5467 11.6267 19.6733 11.3667C19.8 11.1067 20 10.88 20.2667 10.6933C20.7 10.3933 21.1733 10.3133 21.7 10.4467L21.9333 9.41333C21.5533 9.30667 21.1733 9.29333 20.78 9.37333C20.3867 9.45333 20.0067 9.62 19.6267 9.88C19.18 10.1867 18.8467 10.56 18.6267 11C18.4067 11.44 18.3067 11.8933 18.34 12.3733C18.3733 12.8533 18.5333 13.3067 18.8333 13.7333C19.1267 14.16 19.4933 14.4733 19.9333 14.6733L19.94 14.66ZM24.92 11.4067C25.3133 11.68 25.7533 11.84 26.2467 11.8733C26.7333 11.9067 27.2267 11.8133 27.7133 11.6C28.1267 11.4133 28.4733 11.1733 28.7467 10.8733C29.02 10.5733 29.2067 10.24 29.3067 9.85333L28.3 9.51333C28.1467 10.04 27.8267 10.4067 27.3533 10.62C27.0533 10.7533 26.76 10.8067 26.4733 10.78C26.18 10.7533 25.92 10.6533 25.6867 10.48C25.4533 10.3067 25.2667 10.0733 25.1333 9.77333C25 9.48 24.9467 9.18 24.9733 8.89333C25 8.6 25.1 8.34 25.2733 8.10667C25.4467 7.87333 25.6867 7.68667 25.98 7.55333C26.46 7.34 26.9467 7.34667 27.4333 7.57333L27.8533 6.6C27.5 6.42667 27.1267 6.34667 26.7267 6.34667C26.3267 6.34667 25.92 6.44667 25.5 6.63333C25.0067 6.85333 24.6133 7.16 24.3133 7.54667C24.0133 7.93333 23.8333 8.36667 23.78 8.84667C23.72 9.32667 23.8 9.8 24.0133 10.2733C24.2267 10.7467 24.5333 11.12 24.9267 11.4L24.92 11.4067ZM16.7467 19.3933L16.2733 18.2733L17.9867 16.54L19.1133 17L20.0067 16.0933L14.62 14.0733L13.78 14.9267L15.8667 20.28L16.74 19.3933H16.7467ZM17.06 16.1667L15.8867 17.3533L15.04 15.3467L17.0533 16.1667H17.06ZM9.26 25.34L10.5133 24.9667L11.5333 25.7867L11.5667 24.48L12.66 23.7667L11.4267 23.3333L11.0867 22.0667L10.2933 23.1067L8.98667 23.04L9.73333 24.12L9.26667 25.3467L9.26 25.34Z" fill="white"></path><g id="Group"><path id="Vector_2" d="M5.71996 29.8399C6.0533 29.4933 6.44663 29.2533 6.89996 29.1266C7.3533 28.9999 7.82663 28.9999 8.31996 29.1266C8.8133 29.2533 9.22663 29.4933 9.55996 29.8266C9.8933 30.16 10.1133 30.5666 10.2333 31.04C10.3466 31.5133 10.34 31.9999 10.2066 32.5066C10.1 32.8999 9.93996 33.2466 9.71996 33.54C9.49996 33.8333 9.22663 34.06 8.90663 34.2266L8.5733 33.6333C9.0733 33.36 9.40663 32.9333 9.5533 32.3666C9.6533 31.9866 9.65996 31.6266 9.5733 31.2799C9.48663 30.9333 9.3133 30.6333 9.05996 30.38C8.80663 30.1266 8.49996 29.9533 8.1333 29.86C7.76663 29.76 7.4133 29.7599 7.06663 29.8533C6.71996 29.9466 6.42663 30.12 6.17996 30.38C5.9333 30.64 5.7533 30.96 5.6533 31.3333C5.49996 31.9 5.57996 32.4266 5.87996 32.92L5.29996 33.2666C5.09996 32.9666 4.97996 32.6333 4.92663 32.2666C4.8733 31.9 4.90663 31.52 5.0133 31.12C5.14663 30.6133 5.37996 30.1866 5.7133 29.8333L5.71996 29.8399Z" fill="white"></path><path id="Vector_3" d="M4.43327 36.2599C4.69327 35.8532 5.03327 35.5399 5.45994 35.3199C5.88661 35.0999 6.34661 35.0132 6.85327 35.0466C7.35994 35.0799 7.80661 35.2266 8.19994 35.4999C8.59327 35.7666 8.89327 36.1199 9.09994 36.5599C9.30661 36.9999 9.39327 37.4799 9.35327 38.0132C9.31994 38.5399 9.17327 39.0066 8.91327 39.4132C8.65327 39.8199 8.31327 40.1332 7.89327 40.3466C7.47327 40.5599 7.00661 40.6532 6.49994 40.6199C5.99327 40.5866 5.53994 40.4399 5.14661 40.1732C4.75327 39.9066 4.45994 39.5532 4.25327 39.1132C4.04661 38.6732 3.95994 38.1932 3.99327 37.6666C4.02661 37.1399 4.17327 36.6666 4.43327 36.2599ZM4.85327 38.7599C5.00661 39.0799 5.23327 39.3332 5.52661 39.5332C5.81994 39.7332 6.15994 39.8399 6.53994 39.8666C6.91994 39.8932 7.26661 39.8266 7.58661 39.6666C7.90661 39.5066 8.15994 39.2799 8.35327 38.9866C8.54661 38.6932 8.65994 38.3532 8.67994 37.9666C8.70661 37.5799 8.63994 37.2266 8.48661 36.9066C8.33327 36.5866 8.10661 36.3266 7.81327 36.1266C7.51994 35.9332 7.17994 35.8199 6.79994 35.7932C6.41994 35.7666 6.07327 35.8332 5.75327 35.9932C5.43327 36.1532 5.17994 36.3799 4.98661 36.6799C4.79327 36.9799 4.67994 37.3199 4.65994 37.7066C4.63327 38.0932 4.69994 38.4399 4.85327 38.7599Z" fill="white"></path><path id="Vector_4" d="M4.81331 48L8.58664 47.3666L5.13331 46.02L5.07331 45.68L7.88664 43.2866L4.13331 43.9133L4.01331 43.2L9.19331 42.34L9.29331 42.9466L6.01331 45.7133L10.0066 47.24L10.1066 47.8466L4.92664 48.7133L4.80664 48H4.81331Z" fill="white"></path><path id="Vector_5" d="M11.6066 53.2066C11.4466 53.6866 11.1066 54.0399 10.5799 54.2466C10.0533 54.4532 9.55992 54.4399 9.11325 54.1999C8.66659 53.9599 8.31992 53.5199 8.06659 52.8932L7.58659 51.6866L6.11325 52.2799L5.83325 51.5866L10.7066 49.6399L11.4666 51.5399C11.7199 52.1732 11.7666 52.7266 11.6066 53.2132V53.2066ZM9.34659 53.5266C9.62659 53.6799 9.94659 53.6932 10.2999 53.5532C10.6533 53.4132 10.8799 53.1866 10.9733 52.8799C11.0666 52.5732 11.0266 52.1999 10.8533 51.7599L10.3799 50.5732L8.19325 51.4466L8.66659 52.6332C8.83992 53.0732 9.07325 53.3732 9.35325 53.5332L9.34659 53.5266Z" fill="white"></path><path id="Vector_6" d="M9.35325 58.44C9.31325 57.96 9.39992 57.5 9.60658 57.0733C9.81325 56.6467 10.1333 56.2933 10.5533 56.0133C10.9733 55.7333 11.4199 55.5867 11.8999 55.56C12.3733 55.54 12.8266 55.64 13.2532 55.8667C13.6799 56.0933 14.0399 56.4267 14.3333 56.8733C14.6199 57.3133 14.7866 57.7733 14.8266 58.2533C14.8666 58.7333 14.7799 59.1867 14.5733 59.6133C14.3666 60.04 14.0466 60.3933 13.6199 60.6733C13.1933 60.9533 12.7466 61.1067 12.2733 61.1267C11.7999 61.1533 11.3532 61.0467 10.9199 60.82C10.4866 60.5933 10.1333 60.26 9.84658 59.82C9.55325 59.38 9.38658 58.9133 9.35325 58.4333V58.44ZM11.1999 60.18C11.5132 60.34 11.8532 60.4133 12.2066 60.3867C12.5599 60.3667 12.8999 60.2533 13.2132 60.04C13.5332 59.8333 13.7666 59.5667 13.9266 59.2533C14.0866 58.9333 14.1533 58.6 14.1333 58.2467C14.1066 57.8933 13.9933 57.5533 13.7799 57.2333C13.5666 56.9133 13.3066 56.6667 12.9866 56.5067C12.6666 56.3467 12.3332 56.2667 11.9799 56.2933C11.6266 56.3133 11.2866 56.4267 10.9732 56.64C10.6599 56.8533 10.4199 57.1133 10.2599 57.4267C10.0999 57.7467 10.0333 58.08 10.0599 58.44C10.0866 58.8 10.2066 59.1333 10.4133 59.46C10.6199 59.7867 10.8866 60.02 11.2066 60.1867L11.1999 60.18Z" fill="white"></path><path id="Vector_7" d="M13.8666 64.0533C13.8666 63.4933 14.1399 62.9467 14.6666 62.4133L16.7666 60.2933L17.2999 60.82L15.2199 62.92C14.4266 63.72 14.3799 64.4667 15.0799 65.16C15.4199 65.5 15.7799 65.66 16.1533 65.64C16.5266 65.62 16.9199 65.4133 17.3199 65.0067L19.3999 62.9067L19.9199 63.42L17.8199 65.54C17.2866 66.0733 16.7466 66.3467 16.1866 66.3533C15.6333 66.36 15.1066 66.12 14.6066 65.6267C14.1066 65.1333 13.8599 64.6067 13.8666 64.0467V64.0533Z" fill="white"></path><path id="Vector_8" d="M25.0933 67.0266L22.2199 71.4199L21.7066 71.0866L21.2066 66.0866L19.0666 69.3666L18.4399 68.9533L21.3133 64.5599L21.8266 64.8933L22.3266 69.8933L24.4666 66.6133L25.0933 67.0266Z" fill="white"></path><path id="Vector_9" d="M26.7466 67.88L28.8066 68.68C29.3266 68.88 29.7466 69.16 30.0666 69.52C30.3866 69.88 30.5866 70.2867 30.6666 70.7467C30.7466 71.2067 30.6933 71.6733 30.5066 72.1533C30.3199 72.6333 30.0466 73.0133 29.6799 73.3C29.3133 73.5867 28.8933 73.7533 28.4133 73.8C27.9333 73.8533 27.4333 73.7733 26.9199 73.5733L24.8533 72.7733L26.7466 67.88ZM27.1066 72.9533C27.4999 73.1067 27.8799 73.1667 28.2399 73.1267C28.5999 73.0867 28.9133 72.9667 29.1866 72.7467C29.4599 72.5333 29.6666 72.24 29.8066 71.88C29.9466 71.5133 29.9866 71.1667 29.9333 70.82C29.8799 70.48 29.7266 70.1733 29.4866 69.9067C29.2466 69.64 28.9266 69.4267 28.5333 69.2733L27.2133 68.76L25.7866 72.44L27.1066 72.9533Z" fill="white"></path><path id="Vector_10" d="M32.74 69.9199L33.4733 70.0866L32.3 75.2066L31.5667 75.0399L32.74 69.9199Z" fill="white"></path><path id="Vector_11" d="M39.5466 70.86L39.0933 76.0867L38.4799 76.0333L35.6799 71.86L35.3399 75.76L34.5933 75.6933L35.0466 70.4667L35.6599 70.52L38.4599 74.6933L38.7999 70.7933L39.5466 70.86Z" fill="white"></path><path id="Vector_12" d="M45.36 72.9866L46.0733 72.9066L46.3066 74.9399C46.0733 75.1799 45.7933 75.3799 45.46 75.5333C45.1266 75.6866 44.78 75.7866 44.4066 75.8266C43.88 75.8866 43.3933 75.8266 42.9466 75.6399C42.5 75.4599 42.1266 75.1799 41.84 74.7999C41.5533 74.4199 41.38 73.9799 41.32 73.4733C41.26 72.9666 41.3333 72.4933 41.5266 72.0599C41.72 71.6266 42.02 71.2666 42.4133 70.9933C42.8133 70.7133 43.28 70.5466 43.8066 70.4866C44.2266 70.4399 44.6133 70.4666 44.9666 70.5599C45.32 70.6599 45.6333 70.8266 45.9066 71.0599L45.5 71.5733C45.04 71.2199 44.5066 71.0733 43.92 71.1399C43.52 71.1866 43.1733 71.3133 42.88 71.5199C42.5866 71.7266 42.3666 71.9933 42.22 72.3199C42.08 72.6466 42.0266 72.9999 42.0733 73.3799C42.1133 73.7599 42.2466 74.0866 42.46 74.3733C42.6733 74.6599 42.9466 74.8733 43.2866 75.0066C43.62 75.1466 43.9866 75.1933 44.38 75.1466C44.8466 75.0933 45.24 74.9333 45.56 74.6733L45.3666 72.9733L45.36 72.9866Z" fill="white"></path><path id="Vector_13" d="M54.7066 67.66C55.1999 67.7933 55.5599 68.1133 55.7999 68.6333C56.0399 69.1533 56.0533 69.64 55.8333 70.1C55.6133 70.56 55.1999 70.9333 54.5799 71.22L53.3999 71.7666L54.0666 73.2066L53.3866 73.52L51.1799 68.7533L53.0399 67.8933C53.6599 67.6066 54.2133 67.5333 54.6999 67.66H54.7066ZM55.1533 69.9C55.2933 69.6133 55.2866 69.2933 55.1266 68.9466C54.9666 68.6 54.7333 68.3933 54.4199 68.3133C54.1066 68.2333 53.7333 68.2933 53.3066 68.4933L52.1466 69.0266L53.1333 71.1666L54.2933 70.6333C54.7266 70.4333 55.0133 70.1866 55.1533 69.9Z" fill="white"></path><path id="Vector_14" d="M59.8666 63.6333L62.9466 67.8866L62.3399 68.3266L60.9666 66.4333L58.5266 68.2L59.8999 70.0933L59.2933 70.5333L56.2133 66.28L56.8199 65.84L58.1399 67.6666L60.5799 65.9L59.2533 64.0733L59.8599 63.6333H59.8666Z" fill="white"></path><path id="Vector_15" d="M66.4199 62.5732L64.5199 64.6199L65.0933 65.9332L64.5666 66.4999L62.3333 61.1866L62.8399 60.6399L68.3133 62.4599L67.7799 63.0399L66.4266 62.5732H66.4199ZM65.7999 62.3599L63.1399 61.4399L64.2599 64.0199L65.7999 62.3599Z" fill="white"></path><path id="Vector_16" d="M71.3733 57.82L69.4066 57.92C69.3399 58.0466 69.2866 58.14 69.2466 58.2066L68.5533 59.3066L69.9066 60.16L69.5066 60.7933L65.0599 58L66.1466 56.2666C66.5066 55.6933 66.9333 55.3266 67.4133 55.1666C67.8999 55.0066 68.3799 55.08 68.8599 55.3866C69.1999 55.6 69.4399 55.8733 69.5733 56.1933C69.7066 56.5133 69.7333 56.8666 69.6466 57.2466L71.7999 57.1333L71.3666 57.8266L71.3733 57.82ZM69.0066 56.8C68.9666 56.48 68.7866 56.22 68.4599 56.0133C68.1399 55.8133 67.8266 55.76 67.5199 55.8666C67.2133 55.9733 66.9333 56.2266 66.6866 56.6266L66.0066 57.7066L68.0066 58.9666L68.6866 57.8866C68.9399 57.4866 69.0466 57.12 69.0066 56.8Z" fill="white"></path><path id="Vector_17" d="M74.6399 50.1999L71.0333 48.9132L73.3933 51.7732L73.2799 52.0999L69.6599 52.8199L73.2399 54.0999L72.9999 54.7799L68.0599 53.0066L68.2666 52.4266L72.4799 51.6066L69.7333 48.3266L69.9399 47.7466L74.8866 49.5132L74.6466 50.1932L74.6399 50.1999Z" fill="white"></path><path id="Vector_18" d="M74.6266 42.9867L74.2799 45.7533L75.5133 46.4867L75.4199 47.2533L70.5066 44.24L70.5999 43.5067L76.1066 41.7933L76.0066 42.5733L74.6333 42.98L74.6266 42.9867ZM73.9999 43.1733L71.3066 43.9733L73.7199 45.42L73.9999 43.1733Z" fill="white"></path><path id="Vector_19" d="M75.7533 39.1066C75.5466 39.5399 75.2399 39.8866 74.8466 40.1466C74.4533 40.4066 73.9999 40.5533 73.4933 40.5799C72.9866 40.6066 72.5199 40.5133 72.0999 40.2933C71.6799 40.0733 71.3399 39.7599 71.0866 39.3466C70.8333 38.9333 70.6933 38.4666 70.6666 37.9399C70.6466 37.5333 70.6933 37.1533 70.8133 36.8066C70.9333 36.4599 71.1199 36.1599 71.3799 35.9066L71.8799 36.3666C71.4866 36.7799 71.3066 37.2866 71.3333 37.8733C71.3533 38.2599 71.4599 38.6133 71.6533 38.9133C71.8466 39.2199 72.0999 39.4533 72.4133 39.6133C72.7266 39.7733 73.0799 39.8466 73.4599 39.8266C73.8399 39.8066 74.1799 39.6999 74.4733 39.5066C74.7666 39.3133 74.9999 39.0533 75.1599 38.7333C75.3199 38.4066 75.3866 38.0533 75.3666 37.6666C75.3333 37.0799 75.0999 36.5999 74.6599 36.2266L75.1066 35.7133C75.3866 35.9399 75.6066 36.2199 75.7666 36.5533C75.9266 36.8866 76.0133 37.2599 76.0333 37.6666C76.0599 38.1933 75.9666 38.6733 75.7599 39.1066H75.7533Z" fill="white"></path><path id="Vector_20" d="M73.24 31.8133L75.0066 31.4L75.1733 32.12L73.3933 32.54L70.54 35.3467L70.36 34.5667L72.6733 32.3L69.5933 31.2867L69.4266 30.5667L73.2466 31.8133H73.24Z" fill="white"></path></g></g><defs><clipPath id="clip0_1838_3441"><rect width="80" height="80" fill="white"></rect></clipPath></defs></svg>